Coordinates
version=1
nRows=19
nColumns=36
inDegrees=yes

Units are S.I. units (second, meters, Newtons, ...)
If the header above contains a line with 'inDegrees', this indicates whether rotational values are in degrees (yes) or radians (no).

endheader
time	pelvis_tilt	pelvis_list	pelvis_rotation	pelvis_tx	pelvis_ty	pelvis_tz	hip_flexion_r	hip_adduction_r	hip_rotation_r	knee_angle_r	knee_angle_r_beta	ankle_angle_r	subtalar_angle_r	mtp_angle_r	hip_flexion_l	hip_adduction_l	hip_rotation_l	knee_angle_l	knee_angle_l_beta	ankle_angle_l	subtalar_angle_l	mtp_angle_l	lumbar_extension	lumbar_bending	lumbar_rotation	arm_flex_r	arm_add_r	arm_rot_r	elbow_flex_r	pro_sup_r	arm_flex_l	arm_add_l	arm_rot_l	elbow_flex_l	pro_sup_l
     29.88333330	     -2.21434465	      3.06101718	    -13.26434520	      0.48376506	      0.87440947	      0.79693666	    -11.44792257	     -5.14351401	      4.37198691	     19.79621752	      0.34550918	     24.43419913	      2.67266071	     -7.49999987	     33.89191337	     -2.73144677	     -7.27542150	     26.61037195	      0.46443861	      4.97980067	     -8.19145210	     -7.49999987	     -2.22170829	     -3.42341038	     12.14148782	     22.22713421	    -16.88098434	      6.62186633	     43.09158128	     80.83927537	     -5.69489985	     -8.58394583	      1.98617959	      9.46061397	     78.78654868
     29.90000000	     -1.97332350	      3.85227324	    -13.49065025	      0.48928964	      0.88183549	      0.79560529	    -11.63151129	     -6.38385553	      4.29192178	     21.75587008	      0.37971156	     22.12667781	      1.19799604	     -7.49999987	     33.09286650	     -1.57649720	     -6.94062468	     28.22183954	      0.49256402	      4.33694011	     -9.31180363	     -7.49999987	     -1.84965322	     -4.67463991	     12.11087708	     20.36627429	    -16.12475967	      5.90010071	     43.38449419	     80.85607270	     -5.37340878	     -8.94747522	      2.09561532	      9.70575390	     78.53197677
     29.91666670	     -1.57201716	      4.62032606	    -13.57755866	      0.49472592	      0.88733956	      0.79340266	    -11.15319903	     -7.53509975	      4.12231177	     24.84338672	      0.43359890	     18.96716080	     -1.02745970	     -7.49999987	     31.84154263	     -0.24880644	     -6.61766499	     29.26050005	      0.51069207	      4.02951206	    -10.27508977	     -7.49999987	     -1.76098914	     -5.88371197	     11.62264743	     18.60006418	    -15.28716914	      5.53370013	     43.34368080	     80.99568272	     -5.37247540	     -9.21698955	      2.05276163	     10.28729423	     78.60851672
     29.93333330	     -1.11657671	      5.33629585	    -13.50562777	      0.49856298	      0.89115226	      0.79066518	     -9.41386398	     -8.52953048	      4.02471939	     29.91802053	      0.52216796	     14.61516409	     -4.54954852	     -7.49999987	     30.23926257	      1.16432166	     -6.40795375	     29.84175786	      0.52083693	      4.15914817	    -11.01332710	     -7.49999987	     -1.84335491	     -7.03857974	     11.70733573	     15.90467153	    -14.46685348	      2.83497776	     44.07286796	     81.98670377	     -4.76913197	     -9.34274417	      2.21009890	     10.63314223	     78.84354740
     29.95000000	     -0.52853529	      6.11921880	    -13.42626145	      0.49979216	      0.89626970	      0.78756931	     -6.19452611	     -9.54683840	      4.23319587	     37.31975443	      0.65135259	      8.64222125	     -9.29789853	     -7.49999987	     28.10811935	      2.72334338	     -6.38511039	     29.74182347	      0.51909275	      4.63110667	    -11.55939440	     -7.49999987	     -2.24528141	     -8.20082054	     10.93963183	     14.32249854	    -13.75141924	      2.71195608	     43.66245035	     82.06824406	     -4.59244113	     -9.43316968	      2.32477060	     11.36926841	     78.74786446
     29.96666670	      0.15255170	      6.78847656	    -13.44642559	      0.49940123	      0.90533741	      0.78412944	     -2.27325830	    -10.34018969	      4.78318389	     45.20796573	      0.78902785	      2.22361368	    -14.13782733	     -7.49999987	     25.40750865	      4.20993797	     -6.23542769	     28.70952556	      0.50107575	      5.30687332	    -11.92565721	     -7.49999987	     -3.02086734	     -9.17620014	     10.24999193	     12.84900048	    -13.07842728	      2.59800777	     43.08490081	     80.52018043	     -4.22543732	     -9.45736633	      2.47860434	     12.81431924	     77.11080787
     29.98333330	      0.88925056	      7.07464380	    -13.78972521	      0.49931131	      0.91679253	      0.78177102	      1.42593709	    -10.59588154	      5.51552540	     51.66807572	      0.90177804	     -2.05023969	    -17.44410302	     -7.49999987	     22.25647413	      5.14229579	     -6.29091628	     26.93809334	      0.47015842	      6.16270460	    -11.67711796	     -7.49999987	     -3.99353372	     -9.67341700	     10.16160823	     11.45628343	    -12.45560350	      1.80064883	     41.68505175	     81.80115555	     -2.98532304	     -9.54533427	      4.55374277	     13.75301865	     76.29569214
     30.00000000	      1.63527641	      6.83527103	    -14.12513534	      0.49960671	      0.92758620	      0.78092509	      4.33899628	    -10.13549413	      5.97072448	     55.87822095	      0.97525894	     -3.31273836	    -19.07428053	     -7.49999987	     18.87015187	      5.53814864	     -6.12866606	     24.77507735	      0.43240667	      6.40548565	    -11.49468416	     -7.49999987	     -5.21470575	     -9.55980893	     10.06176580	     10.12188825	    -12.12927338	      1.83319849	     40.14886828	     81.05506420	     -1.51446069	     -9.44009850	      4.62183826	     15.32413962	     75.56496663
     30.01666670	      2.63423539	      6.06803752	    -14.40485779	      0.49944163	      0.93264476	      0.78082777	      6.27402995	     -9.06373096	      6.14081575	     58.17345411	      1.01531831	     -1.76671225	    -18.99731962	     -7.49999987	     15.12118565	      5.41668496	     -6.01437573	     22.56720978	      0.39387211	      6.42950647	    -10.99822832	     -7.49999987	     -6.83315938	     -8.83592583	      9.56217968	      9.46691566	    -11.65988251	      1.70057882	     37.57417605	     80.67380712	      0.24112062	     -9.32541289	      5.30004615	     16.50182975	     75.24395593
     30.03333330	      3.38383321	      5.22616103	    -14.47258841	      0.49881295	      0.93066761	      0.78026494	      8.19400139	     -7.73005802	      6.13578220	     59.49147737	      1.03832216	      0.72703791	    -18.90873792	     -7.49999987	     11.72665012	      5.21334164	     -5.66330425	     20.48623810	      0.35755231	      6.12205897	    -10.85789976	     -7.49999987	     -8.10392821	     -7.95206741	      9.14993071	      8.39629440	    -11.44045766	      1.65261481	     35.35795732	     80.67625305	      2.11420621	     -9.22060079	      5.87583798	     17.51266157	     75.28705409
     30.05000000	      4.15625997	      4.35502817	    -14.38317469	      0.49842641	      0.92612769	      0.77947491	      9.96550697	     -6.31365488	      5.95395493	     60.26392492	      1.05180391	      3.57959203	    -18.53817808	     -7.49999987	      8.38771166	      4.96562080	     -5.32633385	     18.58281949	      0.32433138	      6.03014509	    -10.69447905	     -7.49999987	     -9.34334011	     -7.00842894	      8.26988530	      7.48791003	    -11.06989333	      1.45473240	     33.29912142	     80.82173927	      3.85963086	     -9.30360274	      6.60514578	     18.30821371	     75.52199501
     30.06666670	      4.86280170	      3.61694079	    -14.30584076	      0.49864881	      0.92333997	      0.77901978	     11.83015463	     -4.95851519	      5.80259948	     60.56954554	      1.05713800	      5.84107029	    -18.40148758	     -7.49999987	      5.16567437	      4.81222872	     -5.08846617	     16.72252756	      0.29186317	      6.18594496	    -10.65366921	     -7.49999987	    -10.44868559	     -6.25102781	      7.43653355	      6.51205644	    -10.72254237	      1.23507194	     31.69366886	     80.12239976	      5.48347092	     -9.62294928	      6.94372446	     19.30473610	     75.05925729
     30.08333330	      5.38571180	      2.93818623	    -13.87252456	      0.49870299	      0.92428239	      0.77804144	     13.69478455	     -3.78063637	      5.18440422	     60.05068937	      1.04808225	      8.01603709	    -17.51522407	     -7.49999987	      2.26886410	      4.66937431	     -4.72438736	     15.08183854	      0.26322774	      6.89642079	    -10.25470359	     -7.49999987	    -11.27021034	     -5.41490865	      6.29739675	      5.77889337	    -10.35017375	      0.95618863	     29.75501321	     79.67623086	      7.17602252	    -10.13770175	      7.97396040	     19.82118417	     74.85096838
     30.10000000	      5.68816118	      2.39766941	    -13.53963551	      0.49720445	      0.92805976	      0.77712815	     15.63805226	     -2.72659825	      4.67063905	     58.57674929	      1.02235714	      9.51989392	    -16.44484242	     -7.49999987	     -0.25485564	      4.62754223	     -4.33635545	     13.54772437	      0.23645240	      7.57445635	    -10.39585653	     -7.49999987	    -11.80495071	     -4.72427009	      5.53063005	      4.91168123	    -10.04586215	      0.55057888	     28.01224396	     80.13106565	      8.76116185	    -10.63493407	      7.78209368	     20.74449394	     75.33146351
     30.11666670	      6.00288419	      1.81182762	    -13.22087283	      0.49434018	      0.93303460	      0.77723921	     17.09720973	     -1.66611153	      4.11643383	     55.75972364	      0.97319077	      9.74279244	    -16.01384130	     -7.49999987	     -2.67911962	      4.45216247	     -4.38894039	     12.16818474	      0.21237489	      8.72213484	     -9.43695796	     -7.49999987	    -12.52411665	     -3.98116701	      4.68161456	      4.18861070	     -9.76457938	      0.31607467	     26.59821855	     80.52533458	     10.25396699	    -11.15528896	      7.24631594	     21.80015807	     75.87558692
     30.13333330	      6.08139056	      1.32276747	    -12.98768676	      0.49120265	      0.93638592	      0.77848543	     18.39186825	     -0.76111142	      3.55226051	     51.91974487	      0.90617049	      9.58175963	    -15.38562088	     -7.49999987	     -4.73019677	      4.29471802	     -4.19823518	     11.00813502	      0.19212820	      9.51695275	     -9.15271183	     -7.49999987	    -12.87445985	     -3.34604507	      4.01971870	      3.45382667	     -9.45417263	      0.18055705	     24.94344242	     80.23401165	     11.67930570	    -11.64504253	      6.67754465	     23.04020708	     75.93192194
     30.15000000	      6.26781776	      0.74786872	    -12.79385020	      0.48812982	      0.93758268	      0.78011211	     19.07185049	      0.08477255	      2.97870275	     47.11306506	      0.82227811	      8.91079835	    -14.94729275	     -7.49999987	     -6.84955284	      3.96140134	     -4.10233039	     10.08678205	      0.17604756	     10.40265181	     -8.59361109	     -7.49999987	    -13.40374588	     -2.69137243	      3.31016004	      2.65554888	     -9.20712572	     -0.03342373	     23.70549750	     80.29685567	     13.21945677	    -12.15770786	      6.04504370	     24.09388425	     76.38693773
     30.16666670	      6.34363880	      0.26132444	    -12.68317639	      0.48523245	      0.93563933	      0.78197198	     19.59797990	      0.81606896	      2.55017189	     41.66417344	      0.72717701	      8.03570271	    -14.46004598	     -7.49999987	     -8.79129270	      3.63834763	     -3.99653217	      9.32428168	      0.16273942	     11.26277200	     -8.36446283	     -7.49999987	    -13.75946964	     -2.25337679	      2.68575885	      1.58427563	     -8.89781128	     -0.54442489	     22.65877027	     80.59947957	     14.67524749	    -12.79701923	      5.33567644	     25.31655077	     77.19045477
     30.18333330	      6.30769077	     -0.13332165	    -12.52054603	      0.48194617	      0.93068386	      0.78395535	     20.06543558	      1.45691282	      2.12834406	     35.66890102	      0.62253976	      6.84376271	    -13.90024856	     -7.49999987	    -10.51684952	      3.37294303	     -3.76208076	      8.65445028	      0.15104865	     12.35880211	     -8.25863237	     -7.49999987	    -13.96262103	     -2.00944175	      2.09577181	      0.13245266	     -8.59483697	     -1.35090771	     22.11526604	     80.95966732	     16.10121150	    -13.60052167	      4.50480397	     26.69749489	     78.52595038
